# xmcd CD database file
#
# Track frame offsets:
#	150
#	13725
#	24450
#	39380
#	53980
#	73195
#	91252
#	103882
#	122872
#	145945
#	156605
#	170627
#	182592
#	198677
#	211415
#	227220
#
# Disc length: 3222 seconds
#
# Revision: 5
# Processed by: cddbd v1.5.2PL0 Copyright (c) Steve Scherf et al.
# Submitted via: CDex 1.51
#
DISCID=f00c9410
DTITLE=Goodman Brothers - Crooked Smile
DYEAR=1995
DGENRE=Americana
TTITLE0=Independence day
TTITLE1=Where are you tonight
TTITLE2=To win your love
TTITLE3=Girl unusual
TTITLE4=Hand in hand
TTITLE5=John Garfield
TTITLE6=Daddy's gotta play the blues
TTITLE7=Good shepherd
TTITLE8=Mean old world
TTITLE9=Bye bye baby
TTITLE10=Teardrops will fall
TTITLE11=Yes, I'm blue
TTITLE12=Crooked smile
TTITLE13=Your love is all I need
TTITLE14=Walk the street alone
TTITLE15=Solitaire
EXTD=YEAR: 1995
EXTT0=
EXTT1=
EXTT2=
EXTT3=
EXTT4=
EXTT5=
EXTT6=
EXTT7=
EXTT8=
EXTT9=
EXTT10=
EXTT11=
EXTT12=
EXTT13=
EXTT14=
EXTT15=
PLAYORDER=
